# xmcd
#
# Track frame offsets:
#	150
#	15761
#	33345
#	49280
#	67148
#	83723
#	98557
#	120128
#	127967
#	145878
#	161866
#	176968
#	190317
#	207339
#	236782
#
# Disc length: 3237 seconds
#
# Revision: 0
# Processed by: cddbd v1.5.2PL0 Copyright (c) Steve Scherf et al.
# Submitted via: dBpowerAMP V4.0
#
DISCID=cb0ca30f
DTITLE=Shania Twain - The Will Of A Woman
DYEAR=2008
DGENRE=Country
TTITLE0=Party For Two (With Billy Currington)
TTITLE1=Shoes (Country Version)
TTITLE2=I Ain't No Quitter
TTITLE3=Don't
TTITLE4=You Needed Me (With Anne Murray)
TTITLE5=Coat Of Many Colours
TTITLE6=From This Moment On (With Bryan White)
TTITLE7=Amneris Letter
TTITLE8=Shoes (Pop Version)
TTITLE9=Party For Two (Pop Version) (With Mark McGrath)
TTITLE10=You've Got a Way (Notting Hill Mix)
TTITLE11=Blue Eyes Crying in the Rain (Live) (With Willie Nelson)
TTITLE12=You Shook Me All Night Long (Live)
TTITLE13=Medley. (Live) You're Still The One and The Way You look Tonight (Live) (With Elton John)
TTITLE14=Superstition (Live) (With Stevie Wonder)
EXTD=
EXTT0=
EXTT1=
EXTT2=
EXTT3=
EXTT4=
EXTT5=
EXTT6=
EXTT7=
EXTT8=
EXTT9=
EXTT10=
EXTT11=
EXTT12=
EXTT13=
EXTT14=
PLAYORDER=
